<svg width="72" height="72" viewBox="0 0 72 72" fill="none" xmlns="http://www.w3.org/2000/svg">
<mask id="path-1-inside-1_1019_616" fill="white">
<path d="M68.625 49.969V9.91406C68.625 7.54903 66.7008 5.625 64.3359 5.625H54.1406V4.21875C54.1406 1.89253 52.2481 0 49.9219 0C47.5957 0 45.7031 1.89253 45.7031 4.21875V5.625H22.9219V4.21875C22.9219 1.89253 21.0293 0 18.7031 0C16.3769 0 14.4844 1.89253 14.4844 4.21875V5.625H4.28906C1.92417 5.625 0 7.54903 0 9.91406V62.0859C0 64.451 1.92417 66.375 4.28906 66.375H23.4564C24.2329 66.375 24.8626 65.7454 24.8626 64.9688C24.8626 64.1921 24.2329 63.5625 23.4564 63.5625H4.28906C3.47484 63.5625 2.8125 62.9002 2.8125 62.0859V9.91406C2.8125 9.09984 3.47484 8.4375 4.28906 8.4375H14.4844V9.84375C14.4844 12.17 16.3769 14.0625 18.7031 14.0625C21.0293 14.0625 22.9219 12.17 22.9219 9.84375V8.4375H45.7031V9.84375C45.7031 12.17 47.5957 14.0625 49.9219 14.0625C52.2481 14.0625 54.1406 12.17 54.1406 9.84375V8.4375H64.3359C65.1502 8.4375 65.8125 9.09984 65.8125 9.91406V16.875H12.6562C11.8797 16.875 11.25 17.5046 11.25 18.2812C11.25 19.0579 11.8797 19.6875 12.6562 19.6875H65.8125V47.5927C64.6152 46.8375 63.2891 46.2694 61.875 45.929V25.0312C61.875 24.2546 61.2453 23.625 60.4688 23.625H8.15625C7.37972 23.625 6.75 24.2546 6.75 25.0312V58.2188C6.75 58.9954 7.37972 59.625 8.15625 59.625H45.5902C45.6775 61.0052 45.9772 62.3285 46.4577 63.5625H34.7062C33.9297 63.5625 33.3 64.1921 33.3 64.9688C33.3 65.7454 33.9297 66.375 34.7062 66.375H47.9676C50.362 69.7745 54.3164 72 58.7812 72C66.0701 72 72 66.0701 72 58.7812C72 55.3987 70.7223 52.3094 68.625 49.969ZM20.1094 9.84375C20.1094 10.6192 19.4785 11.25 18.7031 11.25C17.9277 11.25 17.2969 10.6192 17.2969 9.84375V4.21875C17.2969 3.44334 17.9277 2.8125 18.7031 2.8125C19.4785 2.8125 20.1094 3.44334 20.1094 4.21875V9.84375ZM51.3281 9.84375C51.3281 10.6192 50.6973 11.25 49.9219 11.25C49.1465 11.25 48.5156 10.6192 48.5156 9.84375V4.21875C48.5156 3.44334 49.1465 2.8125 49.9219 2.8125C50.6973 2.8125 51.3281 3.44334 51.3281 4.21875V9.84375ZM58.7812 45.5625C58.1275 45.5625 57.4848 45.611 56.8561 45.7031H51.4125V37.5469H59.0625V45.566C58.969 45.564 58.8753 45.5625 58.7812 45.5625ZM45.7092 56.8125H40.95V48.5156H48.6V50.3598C47.1005 52.1695 46.0734 54.384 45.7092 56.8125ZM9.5625 37.5469H17.2125V45.7031H9.5625V37.5469ZM20.025 37.5469H27.675V45.7031H20.025V37.5469ZM40.95 37.5469H48.6V45.7031H40.95V37.5469ZM38.1375 45.7031H30.4875V37.5469H38.1375V45.7031ZM40.95 34.7344V26.4375H48.6V34.7344H40.95ZM38.1375 34.7344H30.4875V26.4375H38.1375V34.7344ZM27.675 34.7344H20.025V26.4375H27.675V34.7344ZM27.675 48.5156V56.8125H20.025V48.5156H27.675ZM30.4875 48.5156H38.1375V56.8125H30.4875V48.5156ZM59.0625 34.7344H51.4125V26.4375H59.0625V34.7344ZM17.2125 26.4375V34.7344H9.5625V26.4375H17.2125ZM9.5625 48.5156H17.2125V56.8125H9.5625V48.5156ZM58.7812 69.1875C53.0432 69.1875 48.375 64.5193 48.375 58.7812C48.375 53.0432 53.0432 48.375 58.7812 48.375C64.5193 48.375 69.1875 53.0432 69.1875 58.7812C69.1875 64.5193 64.5193 69.1875 58.7812 69.1875Z"/>
</mask>
<path d="M68.625 49.969V9.91406C68.625 7.54903 66.7008 5.625 64.3359 5.625H54.1406V4.21875C54.1406 1.89253 52.2481 0 49.9219 0C47.5957 0 45.7031 1.89253 45.7031 4.21875V5.625H22.9219V4.21875C22.9219 1.89253 21.0293 0 18.7031 0C16.3769 0 14.4844 1.89253 14.4844 4.21875V5.625H4.28906C1.92417 5.625 0 7.54903 0 9.91406V62.0859C0 64.451 1.92417 66.375 4.28906 66.375H23.4564C24.2329 66.375 24.8626 65.7454 24.8626 64.9688C24.8626 64.1921 24.2329 63.5625 23.4564 63.5625H4.28906C3.47484 63.5625 2.8125 62.9002 2.8125 62.0859V9.91406C2.8125 9.09984 3.47484 8.4375 4.28906 8.4375H14.4844V9.84375C14.4844 12.17 16.3769 14.0625 18.7031 14.0625C21.0293 14.0625 22.9219 12.17 22.9219 9.84375V8.4375H45.7031V9.84375C45.7031 12.17 47.5957 14.0625 49.9219 14.0625C52.2481 14.0625 54.1406 12.17 54.1406 9.84375V8.4375H64.3359C65.1502 8.4375 65.8125 9.09984 65.8125 9.91406V16.875H12.6562C11.8797 16.875 11.25 17.5046 11.25 18.2812C11.25 19.0579 11.8797 19.6875 12.6562 19.6875H65.8125V47.5927C64.6152 46.8375 63.2891 46.2694 61.875 45.929V25.0312C61.875 24.2546 61.2453 23.625 60.4688 23.625H8.15625C7.37972 23.625 6.75 24.2546 6.75 25.0312V58.2188C6.75 58.9954 7.37972 59.625 8.15625 59.625H45.5902C45.6775 61.0052 45.9772 62.3285 46.4577 63.5625H34.7062C33.9297 63.5625 33.3 64.1921 33.3 64.9688C33.3 65.7454 33.9297 66.375 34.7062 66.375H47.9676C50.362 69.7745 54.3164 72 58.7812 72C66.0701 72 72 66.0701 72 58.7812C72 55.3987 70.7223 52.3094 68.625 49.969ZM20.1094 9.84375C20.1094 10.6192 19.4785 11.25 18.7031 11.25C17.9277 11.25 17.2969 10.6192 17.2969 9.84375V4.21875C17.2969 3.44334 17.9277 2.8125 18.7031 2.8125C19.4785 2.8125 20.1094 3.44334 20.1094 4.21875V9.84375ZM51.3281 9.84375C51.3281 10.6192 50.6973 11.25 49.9219 11.25C49.1465 11.25 48.5156 10.6192 48.5156 9.84375V4.21875C48.5156 3.44334 49.1465 2.8125 49.9219 2.8125C50.6973 2.8125 51.3281 3.44334 51.3281 4.21875V9.84375ZM58.7812 45.5625C58.1275 45.5625 57.4848 45.611 56.8561 45.7031H51.4125V37.5469H59.0625V45.566C58.969 45.564 58.8753 45.5625 58.7812 45.5625ZM45.7092 56.8125H40.95V48.5156H48.6V50.3598C47.1005 52.1695 46.0734 54.384 45.7092 56.8125ZM9.5625 37.5469H17.2125V45.7031H9.5625V37.5469ZM20.025 37.5469H27.675V45.7031H20.025V37.5469ZM40.95 37.5469H48.6V45.7031H40.95V37.5469ZM38.1375 45.7031H30.4875V37.5469H38.1375V45.7031ZM40.95 34.7344V26.4375H48.6V34.7344H40.95ZM38.1375 34.7344H30.4875V26.4375H38.1375V34.7344ZM27.675 34.7344H20.025V26.4375H27.675V34.7344ZM27.675 48.5156V56.8125H20.025V48.5156H27.675ZM30.4875 48.5156H38.1375V56.8125H30.4875V48.5156ZM59.0625 34.7344H51.4125V26.4375H59.0625V34.7344ZM17.2125 26.4375V34.7344H9.5625V26.4375H17.2125ZM9.5625 48.5156H17.2125V56.8125H9.5625V48.5156ZM58.7812 69.1875C53.0432 69.1875 48.375 64.5193 48.375 58.7812C48.375 53.0432 53.0432 48.375 58.7812 48.375C64.5193 48.375 69.1875 53.0432 69.1875 58.7812C69.1875 64.5193 64.5193 69.1875 58.7812 69.1875Z" fill="white" stroke="#2676BC" stroke-width="0.6" mask="url(#path-1-inside-1_1019_616)"/>
<path d="M58.5001 59.9343L58.394 59.8283L56.4587 57.893L56.4587 57.893C55.9683 57.4025 55.1732 57.4024 54.682 57.893C54.682 57.893 54.6819 57.893 54.6819 57.893M58.5001 59.9343L54.6819 57.893M58.5001 59.9343L58.6061 59.8283L62.9555 55.4789C63.4462 54.9883 64.2414 54.9883 64.7319 55.4787C65.2225 55.9694 65.2225 56.7649 64.732 57.2555L59.3882 62.5992C59.3882 62.5992 59.3882 62.5992 59.3882 62.5992C59.1525 62.8348 58.833 62.9672 58.4999 62.9672C58.1668 62.9672 57.8473 62.8348 57.6116 62.5992L54.682 59.6696C54.1914 59.179 54.1914 58.3836 54.6819 57.893M58.5001 59.9343L54.6819 57.893" fill="white" stroke="#2676BC" stroke-width="0.3"/>
<path d="M28.1929 64.0806C28.1929 64.0806 28.1929 64.0806 28.1929 64.0806C28.4264 63.8471 28.7511 63.7125 29.0811 63.7125C29.4111 63.7125 29.7357 63.8471 29.9692 64.0806C30.2027 64.3141 30.3373 64.6387 30.3373 64.9688C30.3373 65.2987 30.2026 65.6234 29.9692 65.8569C29.9692 65.8569 29.9692 65.8569 29.9692 65.8569L28.1929 64.0806Z" fill="white" stroke="#2676BC" stroke-width="0.3"/>
<path d="M7.91929 19.1694L7.91923 19.1694C7.68592 19.4029 7.36126 19.5375 7.03125 19.5375C6.69981 19.5375 6.37677 19.403 6.14307 19.1694C5.90951 18.9359 5.775 18.6113 5.775 18.2812C5.775 17.9512 5.90963 17.6266 6.1431 17.3931C6.37663 17.1596 6.69978 17.025 7.03125 17.025C7.36126 17.025 7.68592 17.1596 7.91923 17.3931L7.91929 17.3931C8.15288 17.6266 8.2875 17.9512 8.2875 18.2812C8.2875 18.6113 8.15288 18.9359 7.91929 19.1694Z" fill="white" stroke="#2676BC" stroke-width="0.3"/>
</svg>
