<svg width="72" height="72" viewBox="0 0 72 72" fill="none" xmlns="http://www.w3.org/2000/svg">
<path d="M60.6094 66.4453C60.0269 66.4453 59.5547 66.9175 59.5547 67.5V69.8906H12.4453V17.9297C12.4453 17.3472 11.9731 16.875 11.3906 16.875C10.8082 16.875 10.3359 17.3472 10.3359 17.9297V70.9453C10.3359 71.5278 10.8082 72 11.3906 72H60.6094C61.1918 72 61.6641 71.5278 61.6641 70.9453V67.5C61.6641 66.9175 61.1918 66.4453 60.6094 66.4453Z" fill="white"/>
<path d="M60.6094 0H27.1406H11.3906C10.8082 0 10.3359 0.472219 10.3359 1.05469V8.08594V13.5703C10.3359 14.1528 10.8082 14.625 11.3906 14.625C11.9731 14.625 12.4453 14.1528 12.4453 13.5703V9.14062H27.1406H49.5352C50.1176 9.14062 50.5898 8.66841 50.5898 8.08594C50.5898 7.50347 50.1176 7.03125 49.5352 7.03125H28.1953V2.10938H59.5547V7.03125H54C53.4175 7.03125 52.9453 7.50347 52.9453 8.08594C52.9453 8.66841 53.4175 9.14062 54 9.14062H59.5547V62.9765C59.5547 63.559 60.0269 64.0312 60.6094 64.0312C61.1918 64.0312 61.6641 63.559 61.6641 62.9765V8.08594V1.05469C61.6641 0.472219 61.1918 0 60.6094 0ZM26.0859 7.03125H12.4453V2.10938H26.0859V7.03125Z" fill="white"/>
<path d="M15.4688 5.625C16.0512 5.625 16.5234 5.1528 16.5234 4.57031C16.5234 3.98782 16.0512 3.51562 15.4688 3.51562C14.8863 3.51562 14.4141 3.98782 14.4141 4.57031C14.4141 5.1528 14.8863 5.625 15.4688 5.625Z" fill="white"/>
<path d="M19.4062 5.625C19.9887 5.625 20.4609 5.1528 20.4609 4.57031C20.4609 3.98782 19.9887 3.51562 19.4062 3.51562C18.8238 3.51562 18.3516 3.98782 18.3516 4.57031C18.3516 5.1528 18.8238 5.625 19.4062 5.625Z" fill="white"/>
<path d="M23.3438 5.625C23.9262 5.625 24.3984 5.1528 24.3984 4.57031C24.3984 3.98782 23.9262 3.51562 23.3438 3.51562C22.7613 3.51562 22.2891 3.98782 22.2891 4.57031C22.2891 5.1528 22.7613 5.625 23.3438 5.625Z" fill="white"/>
<path d="M51.6009 56.3328L45.6842 50.4162L47.8643 48.2361C48.3259 47.7747 48.4625 47.0872 48.2129 46.4844C47.9633 45.8817 47.3804 45.4922 46.7281 45.4922H37.9511C37.0649 45.4922 36.3438 46.2132 36.3438 47.0994V55.8764C36.3438 56.5287 36.7331 57.1115 37.3359 57.3612C37.536 57.444 37.7454 57.4844 37.9526 57.4844C38.37 57.4844 38.7792 57.3211 39.0875 57.0129L41.2676 54.8328L47.1841 60.7494C47.774 61.3394 48.5582 61.6642 49.3925 61.6642C50.2267 61.6642 51.0109 61.3394 51.6009 60.7494C52.8185 59.5318 52.8185 57.5505 51.6009 56.3328ZM40.522 52.5954L38.4531 54.6642V47.6016H45.5157L43.4477 49.6696C43.4474 49.6699 43.4471 49.67 43.447 49.6703L40.522 52.5954ZM50.1094 59.2578C49.9179 59.4492 49.6633 59.5547 49.3926 59.5547C49.1219 59.5547 48.8674 59.4492 48.6759 59.2578L42.7592 53.3412L44.1927 51.9076L50.1094 57.8243C50.5047 58.2196 50.5047 58.8625 50.1094 59.2578Z" fill="white"/>
<path d="M54.1406 13.5703H17.8594C17.2769 13.5703 16.8047 14.0425 16.8047 14.625V22.7812C16.8047 23.3637 17.2769 23.8359 17.8594 23.8359H54.1406C54.7231 23.8359 55.1953 23.3637 55.1953 22.7812V14.625C55.1953 14.0425 54.7231 13.5703 54.1406 13.5703ZM53.0859 21.7266H18.9141V15.6797H53.0859V21.7266Z" fill="white"/>
<path d="M54.1406 28.0547H17.8594C17.2769 28.0547 16.8047 28.5269 16.8047 29.1094V37.2656C16.8047 37.8481 17.2769 38.3203 17.8594 38.3203H54.1406C54.7231 38.3203 55.1953 37.8481 55.1953 37.2656V29.1094C55.1953 28.5269 54.7231 28.0547 54.1406 28.0547ZM53.0859 36.2109H18.9141V30.1641H53.0859V36.2109Z" fill="white"/>
<path d="M26.0156 41.4141H17.8594C17.2769 41.4141 16.8047 41.8863 16.8047 42.4688V50.625C16.8047 51.2075 17.2769 51.6797 17.8594 51.6797H26.0156C26.5981 51.6797 27.0703 51.2075 27.0703 50.625V42.4688C27.0703 41.8863 26.5981 41.4141 26.0156 41.4141ZM24.9609 49.5703H18.9141V43.5234H24.9609V49.5703Z" fill="white"/>
<path d="M26.0156 54.3516H17.8594C17.2769 54.3516 16.8047 54.8238 16.8047 55.4062V63.5625C16.8047 64.145 17.2769 64.6172 17.8594 64.6172H26.0156C26.5981 64.6172 27.0703 64.145 27.0703 63.5625V55.4062C27.0703 54.8238 26.5981 54.3516 26.0156 54.3516ZM24.9609 62.5078H18.9141V56.4609H24.9609V62.5078Z" fill="white"/>
<path d="M24.3115 44.9024C23.8692 44.5234 23.2033 44.5743 22.8244 45.0167L21.7365 46.2859L20.9633 45.7861C20.4742 45.4698 19.8213 45.6099 19.505 46.0993C19.1888 46.5885 19.329 47.2414 19.8182 47.5576L21.3651 48.5575C21.5412 48.6714 21.74 48.7266 21.9372 48.7266C22.2361 48.7266 22.5316 48.5997 22.7384 48.3581L24.4259 46.3894C24.8049 45.9473 24.7537 45.2814 24.3115 44.9024Z" fill="white"/>
</svg>
