<svg width="72" height="72" viewBox="0 0 72 72" fill="none" xmlns="http://www.w3.org/2000/svg">
<path d="M21.375 4.5H5.625C5.00288 4.5 4.5 5.00288 4.5 5.625V14.625C4.5 15.2471 5.00288 15.75 5.625 15.75H21.375C21.9971 15.75 22.5 15.2471 22.5 14.625V5.625C22.5 5.00288 21.9971 4.5 21.375 4.5ZM20.25 13.5H6.75V6.75H20.25V13.5Z" fill="white"/>
<path d="M46.125 10.125H59.625V12.375H46.125V10.125Z" fill="white"/>
<path d="M46.125 5.625H59.625V7.875H46.125V5.625Z" fill="white"/>
<path d="M46.125 14.625H59.625V16.875H46.125V14.625Z" fill="white"/>
<path d="M65.25 46.8259V1.125C65.25 0.502875 64.7471 0 64.125 0H1.125C0.502875 0 0 0.502875 0 1.125V59.625C0 60.2471 0.502875 60.75 1.125 60.75H45.2036C46.2791 67.1243 51.8242 72 58.5 72C65.9441 72 72 65.9441 72 58.5C72 53.5163 69.2786 49.1648 65.25 46.8259ZM37.125 2.25V19.6481L34.875 21.1478L32.1244 19.314C31.9365 19.1891 31.7183 19.125 31.5 19.125C31.329 19.125 31.1558 19.1644 30.9971 19.2431L28.125 20.6798V2.25H37.125ZM18 32.625H14.625V34.875H18H33.75C34.371 34.875 34.875 35.379 34.875 36C34.875 36.621 34.371 37.125 33.75 37.125H18V39.375H33.75H34.875C35.496 39.375 36 39.879 36 40.5C36 41.121 35.496 41.625 34.875 41.625H33.75H18V43.875H33.75C34.371 43.875 34.875 44.379 34.875 45C34.875 45.621 34.371 46.125 33.75 46.125H31.5H18V48.375H31.5C32.121 48.375 32.625 48.879 32.625 49.5C32.625 50.121 32.121 50.625 31.5 50.625H2.25V34.875H5.625C5.92425 34.875 6.21 34.7569 6.42037 34.5454L11.7157 29.25H22.3571C21.8576 31.1895 20.0925 32.625 18 32.625ZM2.25 58.5V52.875H31.5C33.3607 52.875 34.875 51.3607 34.875 49.5C34.875 49.0556 34.7839 48.6337 34.6275 48.2445C36.0619 47.8552 37.125 46.5559 37.125 45C37.125 44.3959 36.9529 43.8368 36.6739 43.3451C37.6177 42.7466 38.25 41.6981 38.25 40.5C38.25 39.3019 37.6177 38.2534 36.6739 37.6549C36.9529 37.1632 37.125 36.6041 37.125 36C37.125 34.1393 35.6107 32.625 33.75 32.625H23.0175C24.0907 31.4291 24.75 29.8552 24.75 28.125C24.75 27.5029 24.2471 27 23.625 27H11.25C10.9508 27 10.665 27.1181 10.4546 27.3296L5.15925 32.625H2.25V2.25H25.875V22.5C25.875 22.8904 26.0775 23.2515 26.4094 23.4574C26.5894 23.5688 26.7941 23.625 27 23.625C27.1721 23.625 27.3442 23.5856 27.5029 23.5069L31.4179 21.5494L34.2506 23.4371C34.6286 23.6903 35.1203 23.6903 35.4983 23.4371L38.8733 21.1871C39.1871 20.9767 39.375 20.6257 39.375 20.25V2.25H63V45.7875C61.5904 45.2869 60.0795 45 58.5 45C51.0559 45 45 51.0559 45 58.5H2.25ZM58.5 69.75C52.2967 69.75 47.25 64.7032 47.25 58.5C47.25 52.2967 52.2967 47.25 58.5 47.25C64.7032 47.25 69.75 52.2967 69.75 58.5C69.75 64.7032 64.7032 69.75 58.5 69.75Z" fill="white"/>
<path d="M59.625 56.5616V49.5H57.375V56.5616C56.7056 56.9509 56.25 57.6686 56.25 58.5C56.25 59.7431 57.2569 60.75 58.5 60.75C59.3303 60.75 60.048 60.2944 60.4384 59.625H65.25V57.375H60.4384C60.2415 57.0375 59.9625 56.7585 59.625 56.5616Z" fill="white"/>
</svg>
