<svg width="72" height="72" viewBox="0 0 72 72" fill="none" xmlns="http://www.w3.org/2000/svg">
<path d="M68.625 60.75H67.5V20.25C67.5 19.0565 67.0259 17.9119 66.182 17.068C65.3381 16.2241 64.1935 15.75 63 15.75H57.375V1.125C57.375 0.826631 57.2565 0.540483 57.0455 0.329505C56.8345 0.118526 56.5484 0 56.25 0L15.75 0C15.4516 0 15.1655 0.118526 14.9545 0.329505C14.7435 0.540483 14.625 0.826631 14.625 1.125V15.75H9C7.80653 15.75 6.66193 16.2241 5.81802 17.068C4.97411 17.9119 4.5 19.0565 4.5 20.25V60.75H3.375C2.47989 60.75 1.62145 61.1056 0.988515 61.7385C0.355579 62.3715 0 63.2299 0 64.125L0 66.375C0 67.8668 0.592632 69.2976 1.64752 70.3525C2.70242 71.4074 4.13316 72 5.625 72H66.375C67.8668 72 69.2976 71.4074 70.3525 70.3525C71.4074 69.2976 72 67.8668 72 66.375V64.125C72 63.2299 71.6444 62.3715 71.0115 61.7385C70.3785 61.1056 69.5201 60.75 68.625 60.75ZM11.25 56.25V22.5H14.625V56.25H11.25ZM16.875 9H55.125V56.25H16.875V9ZM57.375 22.5H60.75V56.25H57.375V22.5ZM16.875 2.25H55.125V6.75H16.875V2.25ZM6.75 20.25C6.75 19.6533 6.98705 19.081 7.40901 18.659C7.83097 18.2371 8.40326 18 9 18H14.625V20.25H10.125C9.82663 20.25 9.54048 20.3685 9.3295 20.5795C9.11853 20.7905 9 21.0766 9 21.375V57.375C9 57.6734 9.11853 57.9595 9.3295 58.1705C9.54048 58.3815 9.82663 58.5 10.125 58.5H61.875C62.1734 58.5 62.4595 58.3815 62.6705 58.1705C62.8815 57.9595 63 57.6734 63 57.375V21.375C63 21.0766 62.8815 20.7905 62.6705 20.5795C62.4595 20.3685 62.1734 20.25 61.875 20.25H57.375V18H63C63.5967 18 64.169 18.2371 64.591 18.659C65.0129 19.081 65.25 19.6533 65.25 20.25V60.75H6.75V20.25ZM45.1463 63L44.3925 64.125H27.6075L26.8538 63H45.1463ZM69.75 66.375C69.75 67.2701 69.3944 68.1285 68.7615 68.7615C68.1285 69.3944 67.2701 69.75 66.375 69.75H5.625C4.72989 69.75 3.87145 69.3944 3.23851 68.7615C2.60558 68.1285 2.25 67.2701 2.25 66.375V64.125C2.25 63.8266 2.36853 63.5405 2.5795 63.3295C2.79048 63.1185 3.07663 63 3.375 63H24.1425L26.0662 65.8688C26.5387 66.5888 25.605 66.375 45 66.375C45.7762 66.375 45.8325 66.0375 47.8575 63H68.625C68.9234 63 69.2095 63.1185 69.4205 63.3295C69.6315 63.5405 69.75 63.8266 69.75 64.125V66.375Z" fill="white"/>
<path d="M20.25 3.375C19.9516 3.375 19.6655 3.49353 19.4545 3.7045C19.2435 3.91548 19.125 4.20163 19.125 4.5C19.125 4.79837 19.2435 5.08452 19.4545 5.29549C19.6655 5.50647 19.9516 5.625 20.25 5.625C20.5484 5.625 20.8345 5.50647 21.0455 5.29549C21.2565 5.08452 21.375 4.79837 21.375 4.5C21.375 4.20163 21.2565 3.91548 21.0455 3.7045C20.8345 3.49353 20.5484 3.375 20.25 3.375Z" fill="white"/>
<path d="M24.75 3.375C24.4516 3.375 24.1655 3.49353 23.9545 3.7045C23.7435 3.91548 23.625 4.20163 23.625 4.5C23.625 4.79837 23.7435 5.08452 23.9545 5.29549C24.1655 5.50647 24.4516 5.625 24.75 5.625C25.0484 5.625 25.3345 5.50647 25.5455 5.29549C25.7565 5.08452 25.875 4.79837 25.875 4.5C25.875 4.20163 25.7565 3.91548 25.5455 3.7045C25.3345 3.49353 25.0484 3.375 24.75 3.375Z" fill="white"/>
<path d="M29.25 3.375C28.9516 3.375 28.6655 3.49353 28.4545 3.7045C28.2435 3.91548 28.125 4.20163 28.125 4.5C28.125 4.79837 28.2435 5.08452 28.4545 5.29549C28.6655 5.50647 28.9516 5.625 29.25 5.625C29.5484 5.625 29.8345 5.50647 30.0455 5.29549C30.2565 5.08452 30.375 4.79837 30.375 4.5C30.375 4.20163 30.2565 3.91548 30.0455 3.7045C29.8345 3.49353 29.5484 3.375 29.25 3.375Z" fill="white"/>
<path d="M27.8895 32.9512C29.095 34.0166 30.5031 34.8278 32.0295 35.3362C33.6661 35.887 35.3993 36.0914 37.1191 35.9365C38.8389 35.7815 40.5077 35.2706 42.0195 34.4362C53.1682 28.2375 48.6682 11.25 36.0007 11.25C33.4832 11.2546 31.027 12.027 28.9599 13.4639C26.8928 14.9009 25.3131 16.9342 24.4317 19.2923C23.5503 21.6505 23.4091 24.2214 24.0269 26.6619C24.6447 29.1025 25.9922 31.2965 27.8895 32.9512ZM33.0307 21.5775V20.5537C33.0307 19.7661 33.3436 19.0106 33.9006 18.4536C34.4576 17.8967 35.213 17.5837 36.0007 17.5837C36.7884 17.5837 37.5439 17.8967 38.1008 18.4536C38.6578 19.0106 38.9707 19.7661 38.9707 20.5537V21.5775C38.9707 22.3652 38.6578 23.1206 38.1008 23.6776C37.5439 24.2346 36.7884 24.5475 36.0007 24.5475C35.213 24.5475 34.4576 24.2346 33.9006 23.6776C33.3436 23.1206 33.0307 22.3652 33.0307 21.5775ZM41.7157 31.9725C40.0322 33.1237 38.0402 33.7396 36.0007 33.7396C33.9612 33.7396 31.9693 33.1237 30.2857 31.9725C29.9482 31.7362 29.9932 31.9162 30.2857 30.8475C30.686 29.6641 31.4473 28.636 32.4623 27.9078C33.4774 27.1796 34.6952 26.788 35.9445 26.788C37.1937 26.788 38.4116 27.1796 39.4266 27.9078C40.4417 28.636 41.2029 29.6641 41.6032 30.8475C42.0082 31.9162 42.0532 31.7362 41.7157 31.9725ZM36.0007 13.5C37.9244 13.5011 39.808 14.0503 41.4309 15.0832C43.0538 16.116 44.3489 17.5898 45.1645 19.3321C45.9802 21.0743 46.2826 23.0128 46.0364 24.9207C45.7903 26.8286 45.0056 28.6269 43.7745 30.105C43.4211 29.0766 42.8673 28.1284 42.1451 27.3155C41.4229 26.5025 40.5466 25.8408 39.567 25.3687C40.1967 24.7491 40.6739 23.9916 40.9609 23.156C41.2479 22.3204 41.3368 21.4296 41.2207 20.5537C41.2207 19.1693 40.6708 17.8416 39.6918 16.8627C38.7129 15.8837 37.3852 15.3337 36.0007 15.3337C34.6163 15.3337 33.2886 15.8837 32.3096 16.8627C31.3307 17.8416 30.7807 19.1693 30.7807 20.5537C30.7807 22.1962 30.7807 23.7825 32.4345 25.3687C31.4548 25.8408 30.5786 26.5025 29.8564 27.3155C29.1341 28.1284 28.5803 29.0766 28.227 30.105C26.9958 28.6269 26.2112 26.8286 25.965 24.9207C25.7188 23.0128 26.0213 21.0743 26.8369 19.3321C27.6526 17.5898 28.9476 16.116 30.5705 15.0832C32.1935 14.0503 34.077 13.5011 36.0007 13.5Z" fill="white"/>
<path d="M48.375 38.25H23.625C23.3266 38.25 23.0405 38.3685 22.8295 38.5795C22.6185 38.7905 22.5 39.0766 22.5 39.375V43.875C22.5 44.1734 22.6185 44.4595 22.8295 44.6705C23.0405 44.8815 23.3266 45 23.625 45H48.375C48.6734 45 48.9595 44.8815 49.1705 44.6705C49.3815 44.4595 49.5 44.1734 49.5 43.875V39.375C49.5 39.0766 49.3815 38.7905 49.1705 38.5795C48.9595 38.3685 48.6734 38.25 48.375 38.25ZM47.25 42.75H24.75V40.5H47.25V42.75Z" fill="white"/>
<path d="M48.375 47.25H23.625C23.3266 47.25 23.0405 47.3685 22.8295 47.5795C22.6185 47.7905 22.5 48.0766 22.5 48.375V52.875C22.5 53.1734 22.6185 53.4595 22.8295 53.6705C23.0405 53.8815 23.3266 54 23.625 54H48.375C48.6734 54 48.9595 53.8815 49.1705 53.6705C49.3815 53.4595 49.5 53.1734 49.5 52.875V48.375C49.5 48.0766 49.3815 47.7905 49.1705 47.5795C48.9595 47.3685 48.6734 47.25 48.375 47.25ZM47.25 51.75H24.75V49.5H47.25V51.75Z" fill="white"/>
</svg>
