<svg width="72" height="72" viewBox="0 0 72 72" fill="none" xmlns="http://www.w3.org/2000/svg">
<g clip-path="url(#clip0_804_509)">
<path d="M65.8569 19.7157C66.4394 19.7157 66.9115 19.2436 66.9115 18.6611V6.87435C66.9115 3.08381 63.8276 0 60.0372 0H11.9627C8.17231 0 5.0885 3.08381 5.0885 6.87435V65.1255C5.0885 68.916 8.17231 72 11.9629 72H60.0373C63.8279 72 66.9117 68.916 66.9117 65.1255V23.1554C66.9117 22.5728 66.4395 22.1008 65.8571 22.1008C65.2747 22.1008 64.8025 22.5728 64.8025 23.1554V53.6915H55.4229C54.8405 53.6915 54.3683 54.1635 54.3683 54.7461C54.3683 55.3286 54.8405 55.8007 55.4229 55.8007H64.8025V65.0773H7.19772V55.8007H16.5773C17.1597 55.8007 17.6319 55.3286 17.6319 54.7461C17.6319 54.1635 17.1597 53.6915 16.5773 53.6915H7.19772V15.4267H12.4308C13.0132 15.4267 13.4854 14.9546 13.4854 14.372C13.4854 13.7895 13.0132 13.3174 12.4308 13.3174H7.19772V6.87435C7.19772 4.24683 9.33533 2.10921 11.9627 2.10921H60.0372C62.6647 2.10921 64.8023 4.24683 64.8023 6.87435V13.3174H16.9251C16.3427 13.3174 15.8705 13.7895 15.8705 14.372C15.8705 14.9546 16.3427 15.4267 16.9251 15.4267H64.8022V18.6611C64.8023 19.2436 65.2744 19.7157 65.8569 19.7157ZM60.0372 69.8908H11.9627C10.073 69.8908 8.43667 68.785 7.6668 67.1865H64.3331C63.5632 68.785 61.9269 69.8908 60.0372 69.8908Z" fill="white"/>
<path d="M39.52 7.81675C39.52 5.83704 37.9094 4.22644 35.9297 4.22644C33.9499 4.22644 32.3394 5.83704 32.3394 7.81675C32.3394 9.79645 33.9499 11.407 35.9297 11.407C37.9094 11.407 39.52 9.79645 39.52 7.81675ZM34.4484 7.81675C34.4484 7.00006 35.1128 6.33565 35.9295 6.33565C36.7462 6.33565 37.4106 7.0002 37.4106 7.81675C37.4106 8.63329 36.7462 9.29784 35.9295 9.29784C35.1128 9.29784 34.4484 8.63329 34.4484 7.81675Z" fill="white"/>
<path d="M29.7209 7.81675C29.7209 5.83704 28.1103 4.22644 26.1306 4.22644C24.1509 4.22644 22.5403 5.83704 22.5403 7.81675C22.5403 9.79645 24.1509 11.407 26.1306 11.407C28.1103 11.407 29.7209 9.79645 29.7209 7.81675ZM24.6494 7.81675C24.6494 7.00006 25.3138 6.33565 26.1304 6.33565C26.9471 6.33565 27.6115 7.0002 27.6115 7.81675C27.6115 8.63329 26.9471 9.29784 26.1304 9.29784C25.3138 9.29784 24.6494 8.63329 24.6494 7.81675Z" fill="white"/>
<path d="M19.9217 7.81675C19.9217 5.83704 18.3111 4.22644 16.3314 4.22644C14.3517 4.22644 12.741 5.83704 12.741 7.81675C12.741 9.79645 14.3516 11.407 16.3313 11.407C18.311 11.407 19.9217 9.79645 19.9217 7.81675ZM14.8502 7.81675C14.8502 7.00006 15.5146 6.33565 16.3313 6.33565C17.148 6.33565 17.8124 7.0002 17.8124 7.81675C17.8124 8.63329 17.148 9.29784 16.3313 9.29784C15.5146 9.29784 14.8502 8.63329 14.8502 7.81675Z" fill="white"/>
<path d="M49.3191 7.81675C49.3191 5.83704 47.7086 4.22644 45.7289 4.22644C43.7491 4.22644 42.1385 5.83704 42.1385 7.81675C42.1385 9.79645 43.7491 11.407 45.7289 11.407C47.7086 11.407 49.3191 9.79645 49.3191 7.81675ZM44.2476 7.81675C44.2476 7.00006 44.912 6.33565 45.7287 6.33565C46.5454 6.33565 47.2098 7.0002 47.2098 7.81675C47.2098 8.63329 46.5454 9.29784 45.7287 9.29784C44.912 9.29784 44.2476 8.63329 44.2476 7.81675Z" fill="white"/>
<path d="M59.1182 7.81675C59.1182 5.83704 57.5076 4.22644 55.5279 4.22644C53.5482 4.22644 51.9376 5.83704 51.9376 7.81675C51.9376 9.79645 53.5482 11.407 55.5279 11.407C57.5076 11.407 59.1182 9.79645 59.1182 7.81675ZM54.0467 7.81675C54.0467 7.00006 54.7111 6.33565 55.5278 6.33565C56.3445 6.33565 57.0089 7.0002 57.0089 7.81675C57.0089 8.63329 56.3445 9.29784 55.5278 9.29784C54.7111 9.29784 54.0467 8.63329 54.0467 7.81675Z" fill="white"/>
<path d="M15.5843 41.0144C15.0055 41.0801 14.5895 41.6024 14.6552 42.1811C15.8819 52.9991 25.028 61.1568 35.9296 61.1568C47.737 61.1568 57.3429 51.5509 57.3429 39.7435C57.3429 27.9361 47.737 18.3301 35.9297 18.3301C30.6095 18.3301 25.5087 20.2946 21.5671 23.8616C17.6541 27.4028 15.1933 32.2308 14.6382 37.4566C14.5766 38.0356 14.9962 38.5552 15.5755 38.6166C16.154 38.678 16.6742 38.2585 16.7356 37.6793C17.236 32.9701 19.4545 28.6183 22.9824 25.4255C26.5354 22.21 31.1335 20.4393 35.9297 20.4393C46.5741 20.4393 55.2338 29.099 55.2338 39.7434C55.2338 50.3877 46.5739 59.0476 35.9297 59.0476C26.1018 59.0476 17.8569 51.6945 16.7511 41.9434C16.6854 41.3647 16.1627 40.9492 15.5843 41.0144Z" fill="white"/>
<path d="M35.2642 22.5613C26.3518 22.8998 19.0971 30.1458 18.7482 39.0575C18.5636 43.7761 20.2649 48.2497 23.5389 51.6545C26.8155 55.0618 31.2159 56.9383 35.9297 56.9383C42.1968 56.9383 47.9729 53.5166 51.0043 48.0084C51.2681 47.5289 51.3027 46.9624 51.0989 46.4539C50.8952 45.9455 50.4787 45.5596 49.9563 45.395L48.6414 44.9808C48.363 44.8931 48.176 44.6382 48.176 44.3464V35.1402C48.176 34.8485 48.363 34.5935 48.6413 34.5058L49.9563 34.0917C50.4784 33.9273 50.8946 33.5415 51.0983 33.0333C51.3024 32.5241 51.2676 31.9565 51.003 31.476C47.8386 25.7286 41.8084 22.3124 35.2642 22.5613ZM48.9821 47.2996C46.2785 51.9532 41.3098 54.8292 35.9296 54.8292C31.795 54.8292 27.9344 53.1826 25.0591 50.1926C22.7895 47.8322 21.3821 44.8865 20.9708 41.7118L27.4946 39.0199C30.2513 37.8826 33.3028 37.8452 36.0865 38.915L38.1504 39.7082C40.6684 40.6761 43.4413 40.8732 46.0666 40.2883V44.3465C46.0666 45.5634 46.8466 46.6269 48.0074 46.9926H48.0075L48.9821 47.2996ZM48.0075 32.4943C46.8467 32.8602 46.0667 33.9235 46.0667 35.1404V38.1177C43.7115 38.7456 41.186 38.6152 38.9072 37.7392L36.8433 36.946C33.5539 35.682 29.9481 35.7259 26.6902 37.0702L20.8467 39.4814C20.8487 39.3677 20.8514 39.2539 20.8559 39.1399C21.1619 31.3223 27.5259 24.9658 35.3443 24.6688C35.5406 24.6614 35.7355 24.6577 35.9306 24.6577C41.3278 24.6577 46.2605 27.4973 48.9822 32.1873L48.0075 32.4943Z" fill="white"/>
<path d="M50.5483 36.807V42.8229C50.5483 43.4055 51.0205 43.8775 51.6029 43.8775C52.1854 43.8775 52.6575 43.4055 52.6575 42.8229V36.807C52.6575 36.2245 52.1854 35.7524 51.6029 35.7524C51.0205 35.7524 50.5483 36.2245 50.5483 36.807Z" fill="white"/>
<path d="M62.3912 22.3058V19.5107C62.3912 18.4469 61.5257 17.5813 60.4618 17.5813H55.6656C54.6017 17.5813 53.7362 18.4468 53.7362 19.5107V22.3058C53.7362 23.3695 54.6017 24.2352 55.6656 24.2352H60.4618C61.5255 24.2352 62.3912 23.3695 62.3912 22.3058ZM60.2819 22.126H55.8453V19.6907H60.2819V22.126Z" fill="white"/>
</g>
<defs>
<clipPath id="clip0_804_509">
<rect width="72" height="72" fill="white"/>
</clipPath>
</defs>
</svg>
